{"title":"Glory 26 Amsterdam INTERNAL 720p WEB-DL x264 -={SPARROW}=-","uid":12914095,"size":2151807242,"categoryP":"video","categoryS":"hd___tv_shows","magnet":"?xt=urn:btih:4f3d875d6f9f25812776c59eafd85f2f87a7513f&amp;dn=Glory+26+Amsterdam+INTERNAL+720p+WEB-DL+x264+-%3D%7BSPARROW%7D%3D-&amp;tr=udp%3A%2F%2Ftracker.leechers-paradise.org%3A6969&amp;tr=udp%3A%2F%2Fzer0day.ch%3A1337&amp;tr=udp%3A%2F%2Fopen.demonii.com%3A1337&amp;tr=udp%3A%2F%2Ftracker.coppersurfer.tk%3A6969&amp;tr=udp%3A%2F%2Fexodus.desync.com%3A6969","seeders":1,"leechers":0,"uploader":"CenaCme","files":2,"time":1449324735,"description":"INTERNAL because black bars added on left and right in the VOD\r\nMaybe they will fix it\r\nMaybe someone will re-encode this\r\nBetter than nothing\r\n\r\nGeneral\r\nComplete name                            : Glory.26.Amsterdam.INTERNAL.720p.WEB-DL.x264.mp4\r\nFormat                                   : MPEG-4\r\nFormat profile                           : Base Media\r\nCodec ID                                 : isom\r\nFile size                                : 2.00 GiB\r\nDuration                                 : 2h 7mn\r\nOverall bit rate                         : 2 250 Kbps\r\nWriting application                      : Lavf55.19.104\r\n\r\nVideo\r\nID                                       : 1\r\nFormat                                   : AVC\r\nFormat/Info                              : Advanced Video Codec\r\nFormat profile                           :   \r\nFormat settings, CABAC                   : Yes\r\nFormat settings, ReFrames                : 4 frames\r\nCodec ID                                 : avc1\r\nCodec ID/Info                            : Advanced Video Coding\r\nDuration                                 : 2h 7mn\r\nBit rate                                 : 2 200 Kbps\r\nWidth                                    : 1 280 pixels\r\nHeight                                   : 540 pixels\r\nDisplay aspect ratio                     : 2.40:1\r\nFrame rate mode                          : Variable\r\nFrame rate                               : 29.970 fps\r\nMinimum frame rate                       : 29.412 fps\r\nMaximum frame rate                       : 30.303 fps\r\nColor space                              : YUV\r\nChroma subsampling                       : 4:2:0\r\nBit depth                                : 8 bits\r\nScan type                                : Progressive\r\nBits/(Pixel*Frame)                       : 0.106\r\nStream size                              : 1.88 GiB (94%)\r\nWriting library                          : x264 core 136 r63M 8fcf9de\r\nEncoding settings                        : cabac=1 / ref=3 / deblock=1:0:0 / analyse=0x3:0x113 / me=hex / subme=7 / psy=1 / psy_rd=1.00:0.00 / mixed_ref=1 / me_range=16 / chroma_me=1 / trellis=1 / 8x8dct=1 / cqm=0 / deadzone=21,11 / fast_pskip=1 / chroma_qp_offset=-2 / threads=24 / lookahead_threads=4 / sliced_threads=0 / nr=0 / decimate=1 / interlaced=0 / bluray_compat=0 / constrained_intra=0 / bframes=3 / b_pyramid=2 / b_adapt=1 / b_bias=0 / direct=1 / weightb=1 / open_gop=0 / weightp=2 / keyint=149 / keyint_min=14 / scenecut=0 / intra_refresh=0 / rc_lookahead=40 / rc=cbr / mbtree=1 / bitrate=2200 / ratetol=1.0 / qcomp=0.60 / qpmin=0 / qpmax=69 / qpstep=4 / vbv_maxrate=2200 / vbv_bufsize=4400 / nal_hrd=none / ip_ratio=1.40 / aq=1:1.00\r\n\r\nAudio\r\nID                                       : 2\r\nFormat                                   : AAC\r\nFormat/Info                              : Advanced Audio Codec\r\nFormat profile                           : LC\r\nCodec ID                                 : 40\r\nDuration                                 : 2h 7mn\r\nBit rate mode                            : Constant\r\nBit rate                                 : 128 Kbps\r\nChannel(s)                               : 2 channels\r\nChannel positions                        : Front: L R\r\nSampling rate                            : 44.1 KHz\r\nCompression mode                         : Lossy\r\nStream size                              : 117 MiB (6%)\r\n\r\n\r\nThumb sheet:\r\n \nhttp://extraimago.com/image/G2i","torrent":{"xt":"urn:btih:4f3d875d6f9f25812776c59eafd85f2f87a7513f","amp;dn":"Glory+26+Amsterdam+INTERNAL+720p+WEB-DL+x264+-%3D%7BSPARROW%7D%3D-","amp;tr":["udp%3A%2F%2Ftracker.leechers-paradise.org%3A6969","udp%3A%2F%2Fzer0day.ch%3A1337","udp%3A%2F%2Fopen.demonii.com%3A1337","udp%3A%2F%2Ftracker.coppersurfer.tk%3A6969","udp%3A%2F%2Fexodus.desync.com%3A6969"],"infoHash":"4f3d875d6f9f25812776c59eafd85f2f87a7513f","infoHashBuffer":{"type":"Buffer","data":[79,61,135,93,111,159,37,129,39,118,197,158,175,216,95,47,135,167,81,63]},"announce":[],"urlList":[]}}